<svg id="Logo_Couleur" data-name="Logo Couleur" xmlns="http://www.w3.org/2000/svg" width="5121.729" height="1104.561" viewBox="0 0 5121.729 1104.561">
  <g id="Groupe_169" data-name="Groupe 169" transform="translate(-1246 3346)">
    <g id="Text_Future_Logo" transform="translate(1244.083 -3378.376)">
      <path id="Tracé_275" data-name="Tracé 275" d="M268.433,32.376v1100.73h-142.4V32.376Zm774.359,0L547.079,551.951l506.5,581.155H855.748L406.988,603.524V517.313L862.677,32.376Zm49.271,0h157.794l317.134,575,321.752-575h165.5l-420.284,715.86v384.87h-142.4V748.236ZM2204.34,1133.106V32.376h469.535q314.061,0,314.061,264.021,0,214.758-307.133,317.9l377.941,518.805H2870.929L2520.7,638.162V545.023q315.6-50.033,315.6-242.468,0-152.408-175.506-152.409H2346.741v982.96Z" transform="translate(1122.123 0)" fill="#91afff"/>
      <rect id="Rectangle_47" data-name="Rectangle 47" width="823.359" height="124.766" transform="translate(4300.286 32.846)" fill="#fff27b"/>
      <rect id="Rectangle_48" data-name="Rectangle 48" width="542.212" height="120.492" transform="translate(4300.286 522.731)" fill="#ffe27b"/>
      <path id="Tracé_276" data-name="Tracé 276" d="M430,129.942h823.359V254.711H430Z" transform="translate(3870.286 882.09)" fill="#ffd27b"/>
    </g>
    <path id="Tracé_280" data-name="Tracé 280" d="M48,97H340.094l45.325,110.794H83.253Z" transform="translate(1637.163 -2849.094)" fill="#ffe27b"/>
    <path id="Tracé_281" data-name="Tracé 281" d="M-1252-2180.844h147.781l395.018-963.57,397.113,963.975h157.9L-625.339-3285H-783.128Z" transform="translate(2498 -61)" fill="#91afff"/>
  </g>
</svg>
