<svg xmlns="http://www.w3.org/2000/svg" width="163.183" height="147.503" viewBox="0 0 163.183 147.503"><defs><style>.a,.b{fill:#fff;}.b,.e{stroke:#000;}.b,.d,.e{stroke-miterlimit:10;}.c,.d{fill:#e9a4c1;}.d{stroke:#fff;stroke-width:4px;}.e{font-size:47px;font-family:BebasNeue, Bebas Neue;}</style></defs><g transform="translate(-0.03 0.04)"><path class="a" d="M389.047,245.494c-.723-.051-1.44-.133-2.157-.254Z" transform="translate(-225.833 -175.418)"/><path d="M386.89,245.24c.717.121,1.434.2,2.157.254Z" transform="translate(-225.833 -175.418)"/><path class="b" d="M219.32,165.13" transform="translate(-164.572 -146.131)"/><path class="b" d="M290.68,139.66" transform="translate(-190.66 -136.82)"/><path class="b" d="M203.11,233.63" transform="translate(-158.646 -171.174)"/><path class="b" d="M262.68,192.91" transform="translate(-180.424 -156.287)"/><path class="b" d="M320.92,263" transform="translate(-201.715 -181.911)"/><path class="b" d="M253.28,288.62" transform="translate(-176.987 -191.278)"/><path class="b" d="M337.12,194.51" transform="translate(-207.638 -156.872)"/><path class="b" d="M302.56,248.24" transform="translate(-195.003 -176.515)"/><path class="c" d="M158.212,246.7h-.774c-11.5-.419-22.128-10.049-23.7-21.469-.882-6.4,1.212-12.225,5.741-15.981.26-.216.52-.412.793-.634l.235-.171-.146-.247a23.309,23.309,0,0,1-3.1-8.742,17.29,17.29,0,0,1,5.17-15.467l.14-.133-.044-.184a.859.859,0,0,1,0-.108,37.272,37.272,0,0,1,2.855-20.853c5.589-12.054,17.453-19.254,31.721-19.254h1.542a45.034,45.034,0,0,1,4.5.4h.2l.108-.165a15.81,15.81,0,0,1,3.039-3.375,17.58,17.58,0,0,1,11.419-3.94h.755a24.152,24.152,0,0,1,12.821,4.441c.355.241.7.495,1.034.755l.241.184.2-.235A17.153,17.153,0,0,1,226.4,135.56h.768c11.5.412,22.122,10.049,23.7,21.469a17.327,17.327,0,0,1-4.441,14.763l-1.351,1.269-58.017,53.563-16.666,15.391A17.542,17.542,0,0,1,158.212,246.7Z" transform="translate(-133.211 -135.321)"/><path class="a" d="M226.234,135.78h.755c11.35.406,21.843,9.916,23.4,21.2a17.05,17.05,0,0,1-4.308,14.465h0l-1.345,1.269-18.322,16.92-39.7,36.644-16.7,15.41a17.212,17.212,0,0,1-11.971,4.536h-.761c-11.35-.412-21.843-9.922-23.4-21.2-.869-6.287,1.186-12.009,5.634-15.7.241-.2.495-.4.768-.59l.469-.343-.292-.495a23.08,23.08,0,0,1-3.064-8.628,16.988,16.988,0,0,1,5.075-15.188l.285-.26-.1-.374v-.057a37.031,37.031,0,0,1,2.823-20.688c5.538-11.94,17.294-19.07,31.441-19.07h1.529c1.478.057,2.982.19,4.441.393l.393.057.222-.33a15.479,15.479,0,0,1,2.975-3.305,17.25,17.25,0,0,1,11.235-3.87h.742a23.848,23.848,0,0,1,12.688,4.371c.343.241.691.488,1.021.742l.482.374.393-.469a16.856,16.856,0,0,1,13.208-5.843m0-.634a17.533,17.533,0,0,0-13.7,6.071q-.514-.387-1.047-.761a24.564,24.564,0,0,0-12.993-4.485h-.768a17.928,17.928,0,0,0-11.641,4.016,16.115,16.115,0,0,0-3.1,3.439,45.1,45.1,0,0,0-4.536-.4h-1.548c-14.795,0-26.576,7.708-32.012,19.438a37.475,37.475,0,0,0-2.88,21.037,1.081,1.081,0,0,0,0,.14c-4.041,3.68-6.16,9.326-5.272,15.746a23.714,23.714,0,0,0,3.172,8.882c-.279.2-.546.406-.812.634-4.441,3.661-6.782,9.516-5.849,16.266,1.592,11.584,12.346,21.316,24,21.741h.787a17.764,17.764,0,0,0,12.4-4.739l16.666-15.391,39.689-36.644,18.328-16.92,1.345-1.269h0A17.716,17.716,0,0,0,251,156.906c-1.6-11.591-12.339-21.329-24-21.748h-.78Z" transform="translate(-133.04 -135.16)"/><path class="d" d="M189.712,180.032s-14.693,11.832-36.162-3.692" transform="translate(-140.527 -150.23)"/><path class="d" d="M256.6,158.707s-8.051-6.579-1.389-14.287" transform="translate(-176.728 -138.56)"/><path class="d" d="M179.693,228.71s-4.111,6.446-13.443,1.523" transform="translate(-145.17 -169.375)"/><path class="d" d="M157.467,251.972s-5.424,5.71-13.957-1.212" transform="translate(-136.857 -177.437)"/><path class="d" d="M219.515,160.348s6.04-7.245-3.115-16.748" transform="translate(-163.504 -138.26)"/><path class="d" d="M251.964,181.812s-4.739-24.666,24.273-21.24" transform="translate(-176.401 -144.346)"/><path class="d" d="M171.677,258.253s-11.572-12.365-6.427-29.183" transform="translate(-144.322 -169.507)"/><path class="d" d="M198.881,210.532A26.252,26.252,0,0,1,185,189.73" transform="translate(-152.025 -155.125)"/><path class="d" d="M215.811,247.464s-1.1-13.8,15.061-14.814" transform="translate(-163.283 -170.816)"/><path class="c" d="M208.059,302.36a20.3,20.3,0,0,1-4.327-.482c-11.261-2.468-20.028-13.824-19.534-25.319A17.621,17.621,0,0,1,189.813,264l16.66-15.4,57.973-53.614,1.345-1.269A16.66,16.66,0,0,1,276.531,190a20.3,20.3,0,0,1,4.327.476c11.267,2.468,20.028,13.824,19.54,25.319a17.246,17.246,0,0,1-7.055,13.71l-.247.178.165.254c.235.355.457.717.672,1.091a24.108,24.108,0,0,1,3.4,13.132,17.7,17.7,0,0,1-4.872,11.819,15.917,15.917,0,0,1-3.6,2.76l-.178.1v.2a42.982,42.982,0,0,1,.063,4.555c-.634,14.769-8.983,26.893-21.792,31.645a35.089,35.089,0,0,1-12.308,2.163,40.712,40.712,0,0,1-8.71-.964h-.1l-.178-.063-.14.127a16.736,16.736,0,0,1-11.521,4.441,20.254,20.254,0,0,1-4.314-.482,23.346,23.346,0,0,1-8.469-3.806l-.235-.165-.19.222c-.209.254-.431.5-.666.736a16.6,16.6,0,0,1-12.054,4.948Z" transform="translate(-151.724 -155.222)"/><path class="a" d="M276.359,190.109a20.067,20.067,0,0,1,4.257.469c11.121,2.436,19.775,13.646,19.292,24.99a16.9,16.9,0,0,1-6.921,13.469l-.495.355.33.508c.228.349.45.711.666,1.079a23.791,23.791,0,0,1,3.331,12.961,17.345,17.345,0,0,1-4.783,11.635,15.683,15.683,0,0,1-3.534,2.709l-.343.19v.4a42.372,42.372,0,0,1,.044,4.485,36.738,36.738,0,0,1-6.389,19.692,32.107,32.107,0,0,1-15.156,11.661,34.74,34.74,0,0,1-12.2,2.144,40.137,40.137,0,0,1-8.615-.952h-.082l-.33-.165-.286.266a16.406,16.406,0,0,1-11.3,4.333,19.6,19.6,0,0,1-4.244-.476,23.035,23.035,0,0,1-8.355-3.73l-.476-.336-.374.45c-.216.254-.425.488-.634.717a16.3,16.3,0,0,1-11.825,4.853,20.084,20.084,0,0,1-4.257-.476c-11.121-2.436-19.775-13.646-19.286-25a17.326,17.326,0,0,1,5.462-12.327l16.66-15.4,39.657-36.682L264.464,195l1.351-1.269h0a16.361,16.361,0,0,1,10.506-3.635m0-.634a17.053,17.053,0,0,0-10.937,3.806h0l-1.345,1.237-18.315,16.939L206.1,248.158l-16.66,15.4a17.886,17.886,0,0,0-5.71,12.783c-.5,11.654,8.355,23.137,19.781,25.643a20.472,20.472,0,0,0,4.4.488,16.907,16.907,0,0,0,12.282-5.044c.235-.241.463-.495.685-.755a23.707,23.707,0,0,0,8.584,3.806,20.341,20.341,0,0,0,4.377.489,16.952,16.952,0,0,0,11.737-4.5l.133.038a40.751,40.751,0,0,0,8.774.971,35.484,35.484,0,0,0,12.422-2.182c12.542-4.65,21.335-16.412,22-31.93a45.312,45.312,0,0,0-.044-4.549A16.031,16.031,0,0,0,292.53,256a18.068,18.068,0,0,0,4.967-12.054,24.533,24.533,0,0,0-3.445-13.323c-.216-.374-.444-.742-.679-1.11a17.644,17.644,0,0,0,7.188-13.957c.495-11.654-8.362-23.137-19.787-25.643a20.936,20.936,0,0,0-4.4-.482Z" transform="translate(-151.552 -155.015)"/><path class="d" d="M312.107,297.33s-12.53,14.008.577,36.929" transform="translate(-196.519 -194.462)"/><path class="d" d="M334.42,250.33s5.97,8.552,14.236,2.538" transform="translate(-206.651 -177.279)"/><path class="d" d="M264.969,316.73s-6.75,3.591-2.582,13.278" transform="translate(-179.82 -201.554)"/><path class="d" d="M240.059,336.7s-6.141,5.075.07,14.306" transform="translate(-171.163 -208.855)"/><path class="d" d="M328.43,286.717s7.67-5.45,16.387,4.441" transform="translate(-204.461 -190.034)"/><path class="d" d="M306.7,242.022s24.216,6.674,23.086-22.522" transform="translate(-196.517 -166.008)"/><path class="d" d="M220.14,324.33s11.419,12.517,28.587,8.71" transform="translate(-164.872 -204.333)"/><path class="d" d="M274.94,297.83a26.271,26.271,0,0,0,19.667,15.492" transform="translate(-184.906 -194.645)"/><path class="d" d="M242.31,278.3s13.678,2.182,15.949-13.843" transform="translate(-172.977 -182.445)"/><text class="e" transform="translate(27.57 91.305)"><tspan x="0" y="0">AKyre</tspan></text></g></svg>